<svg width="40" height="40" viewBox="0 0 40 40" fill="none" xmlns="http://www.w3.org/2000/svg">
<g clip-path="url(#clip0_4_17)">
<path d="M21.7394 16.8437L1.79536 36.7969C1.0616 37.5312 1.0616 38.7187 1.79536 39.4453C2.52911 40.1719 3.71561 40.1797 4.44156 39.4453L10.2804 33.6016C10.858 33.9609 11.4747 34.2422 12.1382 34.4219C15.6352 35.375 21.0759 35.5078 26.3839 31.9844C27.3363 31.3515 26.8367 30 25.697 30H24.4403C24.0422 30 23.7221 29.6797 23.7221 29.2812C23.7221 28.9609 23.9329 28.6875 24.2295 28.5937L31.8559 26.3047C32.1213 26.2266 32.3555 26.0625 32.5116 25.8281C32.855 25.3281 33.1829 24.8203 33.4951 24.2969C33.9791 23.4922 33.378 22.5 32.4413 22.5H29.4282C29.0301 22.5 28.7101 22.1797 28.7101 21.7812C28.7101 21.4609 28.9209 21.1875 29.2175 21.0937L35.5325 19.1953C35.8915 19.0859 36.1882 18.8203 36.3287 18.4687C38.6002 12.7344 39.6384 6.72655 39.9584 2.87499C40.0209 2.10155 39.7242 1.34374 39.1778 0.796861C38.6314 0.249986 37.8742 -0.0468892 37.1014 0.0156108C30.5601 0.546861 17.8365 3.16405 10.7253 10.2812C4.47278 16.5391 4.42595 23.6172 5.56561 27.8437C5.72953 28.4609 6.50232 28.5937 6.95506 28.1406L19.7958 15.2969C20.2797 14.8125 21.0759 14.8125 21.5599 15.2969C21.9814 15.7187 22.0361 16.3594 21.7316 16.8437H21.7394Z" fill="white"/>
</g>
<defs>
<clipPath id="clip0_4_17">
<rect width="39.9662" height="40" fill="white"/>
</clipPath>
</defs>
</svg>
